<svg xmlns="http://www.w3.org/2000/svg" xmlns:xlink="http://www.w3.org/1999/xlink" width="572.374" height="580.288" viewBox="0 0 572.374 580.288">
  <defs>
    <linearGradient id="linear-gradient" x2="1" y2="1.34" gradientUnits="objectBoundingBox">
      <stop offset="0" stop-color="#ef1818"/>
      <stop offset="1" stop-color="#8d34e6"/>
    </linearGradient>
    <linearGradient id="linear-gradient-2" x2="1.435" y2="1.497" gradientUnits="objectBoundingBox">
      <stop offset="0" stop-color="#dd1e3f"/>
      <stop offset="1" stop-color="#3c1ce3"/>
    </linearGradient>
  </defs>
  <g id="Group_3" data-name="Group 3" transform="translate(1.5 1.5)">
    <g id="remote-desktop-svgrepo-com" transform="translate(0 0)">
      <path id="Path_1" data-name="Path 1" d="M76.7,56V93.133H45.755C27.189,93.133,21,117.888,21,117.888H231.421s-6.189-24.755-18.567-24.755H181.91V56" transform="translate(84.21 262.107)" fill="#888" stroke="#222" stroke-width="1.5"/>
      <path id="Path_2" data-name="Path 2" d="M4,291.762V44.209C4,31.831,4,4.6,28.755,4.6h377.52c24.755,0,24.755,27.231,24.755,58.175V291.762c0,6.189,0,24.755-37.133,24.755H28.755C4,316.518,4,291.762,4,291.762Z" transform="translate(-4 -4.6)" fill="#ccc" stroke="#222" stroke-width="3"/>
      <path id="Path_3" data-name="Path 3" d="M8,9H385.52V268.932H8Z" transform="translate(16.755 18.231)" stroke="#333" stroke-width="1" fill="url(#linear-gradient)"/>
      <path id="Path_4" data-name="Path 4" d="M99.7,88v37.133H68.755C50.189,125.133,44,149.888,44,149.888H254.421s-6.189-24.755-18.567-24.755H204.91V88" transform="translate(203.554 428.15)" fill="#888" stroke="#222" stroke-width="1.5"/>
      <path id="Path_5" data-name="Path 5" d="M27,321.687V74.133C27,61.755,27,37,51.755,37h377.52c24.755,0,24.755,24.755,24.755,55.7V321.687c0,6.189,0,24.755-37.133,24.755H51.755C27,346.442,27,321.687,27,321.687Z" transform="translate(115.343 163.519)" fill="#ccc" stroke="#222" stroke-width="3"/>
      <path id="Path_6" data-name="Path 6" d="M31,41H408.52V300.932H31Z" transform="translate(136.099 184.274)" stroke="#444" stroke-width="1" fill="url(#linear-gradient-2)"/>
    </g>
  </g>
</svg>
